# xmcd CD database file
# Copyright (C) 1997 Ti Kan
# 
# Track frame offsets:
#     182
#     18655
#     34072
#     52602
#     69275
#     86705
#     102475
#     118307
#     134755
#     150765
# 
# Disc length: 2208 seconds
# 
# Revision: 1
# Processed by: cddbd v1.4b41PL1 Copyright (c) Steve Scherf et al.
# Submitted via: DiscPlay 4.0.2
# 
DISCID=7e089e0a
DTITLE=Tony White - Let My Feelings Show
DYEAR=1900
DGENRE=
TTITLE0=I Loved You
TTITLE1=How Do You Live
TTITLE2=Oh Linda (This Song Is Just For You)
TTITLE3=Love Me Forever
TTITLE4=Loving You
TTITLE5=Take, Take A Chance
TTITLE6=Where I Go (From Here)
TTITLE7=Mystery Romance
TTITLE8=Let My Feelings Show
TTITLE9=Lets Do It
EXTD=
EXTT0=
EXTT1=
EXTT2=
EXTT3=
EXTT4=
EXTT5=
EXTT6=
EXTT7=
EXTT8=
EXTT9=
PLAYORDER=
